<svg width="77" height="75" viewBox="0 0 77 75" fill="none" xmlns="http://www.w3.org/2000/svg">
<path d="M54.2661 70.8504C73.4324 61.5559 81.9043 39.2417 73.1886 21.0104C64.4729 2.77909 41.8701 -4.46561 22.7037 4.82894C3.53739 14.1235 -4.93453 36.4376 3.78116 54.6689C12.4969 72.9003 35.0997 80.145 54.2661 70.8504Z" fill="url(#paint0_linear_0_1)"/>
<path d="M5.10938 36.9783C5.10938 56.2674 20.4452 71.8863 39.3409 71.8863C58.2367 71.8863 73.5725 56.2674 73.5725 36.9783C73.5725 17.6892 58.2367 2.07031 39.3409 2.07031C20.4452 2.07031 5.10938 17.6892 5.10938 36.9783Z" stroke="white" stroke-opacity="0.22" stroke-width="2.01342"/>
<path d="M4.67566 34.3916C4.67566 50.0537 18.994 62.8399 36.7731 62.8399C54.5524 62.8399 68.8706 50.0537 68.8706 34.3916C68.8706 18.7295 54.5524 5.94336 36.7731 5.94336C18.994 5.94336 4.67566 18.7295 4.67566 34.3916Z" stroke="white" stroke-opacity="0.22"/>
<path d="M7.67712 39.1337C7.67712 55.5088 18.1909 68.4382 30.7816 68.4382C43.3723 68.4382 53.886 55.5088 53.886 39.1337C53.886 22.7584 43.3723 9.8291 30.7816 9.8291C18.1909 9.8291 7.67712 22.7584 7.67712 39.1337Z" stroke="white" stroke-opacity="0.22" stroke-width="2.01342"/>
<path opacity="0.1" d="M29.0812 50.7707C29.0812 57.9461 33.9293 63.259 39.3409 63.259C44.7526 63.259 49.6006 57.9461 49.6006 50.7707C49.6006 43.5952 44.7526 38.2822 39.3409 38.2822C33.9293 38.2822 29.0812 43.5952 29.0812 50.7707Z" stroke="white" stroke-opacity="0.1" stroke-width="4.02685"/>
<path d="M29.9813 11.4043H44.2112V17.1672H29.9813V11.4043ZM26.5661 8.47754V20.0939H47.836V8.47754H26.5661ZM30.6703 12.6413C31.3593 13.9689 31.9884 15.7189 32.1682 16.8353L34.5348 15.9301C34.3251 14.7836 33.6361 13.1241 32.8872 11.8568L30.6703 12.6413ZM26.1167 21.5422V24.3784H48.2554V21.5422H26.1167ZM23.7501 25.887V29.0551H50.652V25.887H23.7501ZM35.3437 9.68444V27.5465H38.9686V9.68444H35.3437ZM41.2154 11.7663C40.8559 13.0637 40.1369 14.9344 39.5378 16.1112L41.7546 16.956C42.3837 15.8698 43.1327 14.2405 43.8816 12.7017L41.2154 11.7663ZM31.9585 30.5336C32.2281 32.1931 32.3479 34.3353 32.3479 35.6327L35.8829 35.2103C35.8829 33.9431 35.6433 31.831 35.3137 30.2017L31.9585 30.5336ZM37.98 30.6543C38.5791 32.2534 39.1783 34.3655 39.358 35.6629L42.9829 34.8181C42.7432 33.5206 42.0542 31.4991 41.3951 29.9603L37.98 30.6543ZM43.9116 30.4732C45.1998 32.1629 46.7576 34.4862 47.3867 35.9344L51.0115 34.6672C50.2626 33.1586 48.585 30.956 47.2668 29.3568L43.9116 30.4732ZM26.6859 29.387C25.9969 31.2879 24.7687 33.3094 23.5104 34.4258L26.9556 35.9344C28.3336 34.5163 29.5619 32.3137 30.2209 30.262L26.6859 29.387ZM23.5104 45.0163V48.3051H33.037V45.0163H23.5104ZM26.3864 54.4301V57.5982H29.8015V65.1715H26.3864V68.3396H32.7973V54.4301H26.3864ZM26.9855 46.706C26.2366 51.2922 24.9484 55.6672 22.8214 58.5034C23.3307 59.5594 23.9598 61.8525 24.1096 62.8181C27.2252 59.0767 29.1125 53.1931 30.2509 47.4603L26.9855 46.706ZM25.1881 54.4301V70.6025H28.1539V54.4301H25.1881ZM40.0171 58.4732V71.9905H43.3723V58.4732H40.0171ZM33.3665 60.9172V63.8741H50.8617V60.9172H33.3665ZM33.3665 47.762V50.5681H50.5622V47.762H33.3665ZM40.1669 44.081V54.762H48.0158V44.1413H45.02V52.3482H43.0129V44.081H40.1669ZM39.4179 62.6974C37.98 65.262 35.1939 67.7965 32.4079 69.1241C33.1568 69.7275 34.1754 70.9948 34.7146 71.8094C37.5905 70.0896 40.3766 66.8913 41.9044 63.5724L39.4179 62.6974ZM43.7918 62.8181L41.515 63.6931C43.1926 66.8008 46.1584 69.9387 48.9744 71.5681C49.5137 70.6931 50.5322 69.456 51.3111 68.8525C48.4352 67.6155 45.3795 65.2017 43.7918 62.8181ZM35.104 44.5034V58.9862H49.7234V56.1801H38.1597V44.5034H35.104Z" fill="#1E1E1E"/>
<defs>
<linearGradient id="paint0_linear_0_1" x1="88.6271" y1="102.983" x2="41.8695" y2="60.7835" gradientUnits="userSpaceOnUse">
<stop offset="0.0122876" stop-color="#E0DBCA" stop-opacity="0.967301"/>
<stop offset="0.0847874" stop-color="#E8E8E8"/>
<stop offset="0.661458" stop-color="#C6B269" stop-opacity="0.86"/>
</linearGradient>
</defs>
</svg>
